<svg xmlns="http://www.w3.org/2000/svg" viewBox="0 0 435.47 136.58">
<defs>
<style>
.cls-1{fill:#0b4a7b}
.cls-2{fill:#eba821}
.d-none{
    -moz-box-shadow: -5px -5px 5px #888;
  -webkit-box-shadow: -5px -5px 5px #888;
  box-shadow: -5px -5px 5px #888;
}
</style>
</defs>
<g id="Layer_2" data-name="Layer 2">
<g id="Layer_1-2" data-name="Layer 1">
<path class="cls-1" d="M51.3 126.12c-1.33-.42-2.62-.88-4-1.34a38.09 38.09 0 0 1 5.76 4.1 19.44 19.44 0 0 0-1.8-2.76m34.58 0a13.86 13.86 0 0 0-1.8 2.76 33.67 33.67 0 0 1 5.71-4.1c-1.24.46-2.62.92-3.91 1.34"/>
<path class="cls-1" d="M136.86 61.22A68.37 68.37 0 0 0 73.8.28a45.44 45.44 0 0 0-10.1 0A68.34 68.34 0 0 0 .41 61.22 57.18 57.18 0 0 0 0 68.64v50.89c25.58 4.74 41.3 17.05 41.3 17.05a38.81 38.81 0 0 0-6.54-8.16h-.1A71.86 71.86 0 0 0 21 118.1a103.54 103.54 0 0 0-13-6.64l.14-10.51.55-30.65.14-5.85v-.46a60.42 60.42 0 0 1 13.62-33.66 64.73 64.73 0 0 0 14.2 9.91c-.79 2-1.53 4-2.12 6A55.51 55.51 0 0 1 42 51.07a74.06 74.06 0 0 1 2.44-7.28 68 68 0 0 0 24.16 4.52 68.44 68.44 0 0 0 24.2-4.52A65.94 65.94 0 0 1 95.23 51a55.82 55.82 0 0 1 7.56-4.8c-.64-2-1.33-4-2.12-6a65.64 65.64 0 0 0 14.15-9.91A60.25 60.25 0 0 1 128.51 64l.1 2.26v3.6l.56 30.93.18 10.6a99.63 99.63 0 0 0-13 6.69 79.51 79.51 0 0 0-13.69 10.09 38.53 38.53 0 0 0-6.66 8.41s15.72-12.31 41.3-17.05V68.64a57.18 57.18 0 0 0-.41-7.42M40.29 32.5a57.76 57.76 0 0 1-11.85-8.39A60.18 60.18 0 0 1 58.73 9.5a79.65 79.65 0 0 0-18.44 23m7.93 3.5a67.82 67.82 0 0 1 20.42-23.14A68.63 68.63 0 0 1 89.1 36a59.83 59.83 0 0 1-40.88 0M97 32.5a79.91 79.91 0 0 0-18.43-23 60.39 60.39 0 0 1 30.28 14.61A56.44 56.44 0 0 1 97 32.5"/><path class="cls-2" d="M51.3 126.13c-1.34-.42-2.63-.88-4-1.34a80 80 0 0 0-11.25-5.71.23.23 0 0 0-.19-.09 148.5 148.5 0 0 0-20.37-7c-1.34-.32-2.67-.69-4.06-1V53.11l7.84 2.82v47.34a2.33 2.33 0 0 1 .46.23h.14c.74.33 2.3 1 4.24 1.94 2.26 1.11 5.16 2.63 8.25 4.47 6.5 3.87 14 9.36 18.9 16.18"/><path class="cls-2" d="M53.1 128.9a36.81 36.81 0 0 0-5.77-4.11c1.34.46 2.63.93 4 1.34a20.45 20.45 0 0 1 1.8 2.77M125.7 53.11V111c-1.34.32-2.63.65-3.87 1a156.25 156.25 0 0 0-20.52 7l-.14.09a82.67 82.67 0 0 0-11.38 5.76c-1.25.46-2.63.93-3.92 1.34 4.93-6.82 12.45-12.35 19-16.23a78.82 78.82 0 0 1 8.25-4.47c2.12-1.06 3.74-1.7 4.38-2h.09l.28-.13V55.93z"/><path class="cls-2" d="M89.79 124.79a33.13 33.13 0 0 0-5.72 4.11 13.92 13.92 0 0 1 1.8-2.77c1.29-.41 2.67-.88 3.92-1.34M64.49 131.42s-10.6-14.06-23.1-23.28c-1-.74-2-1.43-3-2.07a39.92 39.92 0 0 0-9.12-4.61 14 14 0 0 0-2.26-.65V43a35.21 35.21 0 0 1 7.47 3.22A55.51 55.51 0 0 1 42 51.07c6.54 5 14.1 13 20.33 25.17l.46 13.19.36 8.57.37 8.9.6 15.35zM110.21 43v57.8a16.69 16.69 0 0 0-2.25.65c-.7.23-1.48.55-2.22.87a40 40 0 0 0-6.87 3.74c-1 .64-2 1.33-3 2.07-12.4 9.17-23.1 23.23-23.1 23.23l.42-9.17.64-16.51.29-7.68.32-8.57.56-13.19a73 73 0 0 1 20.23-25.17 55.82 55.82 0 0 1 7.56-4.8 34.36 34.36 0 0 1 7.42-3.27"/><path class="cls-1" d="m67.15 56.44-29.5 15.64a.94.94 0 0 0 0 1.68l28.55 13.3A6.76 6.76 0 0 0 72 87l27.64-13.25a.94.94 0 0 0 0-1.67L71.11 56.47a4.21 4.21 0 0 0-4 0"/>
<path class="cls-1 d-none" d="m90.77 83.85-19.32 9.2a5.44 5.44 0 0 1-4.63 0l-20.33-9.67a.58.58 0 0 0-.82.52v5.48a2.5 2.5 0 0 0 1.33 2.2l14.13 7.5a16.82 16.82 0 0 0 16-.11l13.23-7.26a2.51 2.51 0 0 0 1.29-2.19v-5.14a.58.58 0 0 0-.83-.53M190.38 112.83h-8.3V98.38h1.15v13.38h7.15v1.07zM201.8 107v.27a4.12 4.12 0 0 1 0 .42h-7.41a7.69 7.69 0 0 0 .34 2.06 3.92 3.92 0 0 0 .71 1.37 2.64 2.64 0 0 0 1 .76 3 3 0 0 0 1.15.23 2.82 2.82 0 0 0 1.86-.69 3.39 3.39 0 0 0 1.08-2.08h1.19a5.12 5.12 0 0 1-.58 1.68 4.2 4.2 0 0 1-1 1.18 3.69 3.69 0 0 1-1.25.7 4.29 4.29 0 0 1-1.43.23 4.08 4.08 0 0 1-1.7-.36 3.94 3.94 0 0 1-1.39-1.09 5.33 5.33 0 0 1-.93-1.81 8.89 8.89 0 0 1-.33-2.56 8 8 0 0 1 .34-2.42 5.63 5.63 0 0 1 1-1.84 4.14 4.14 0 0 1 1.44-1.17 4.09 4.09 0 0 1 1.8-.41 3.62 3.62 0 0 1 1.81.43 3.77 3.77 0 0 1 1.3 1.18 5.56 5.56 0 0 1 .79 1.76 8.3 8.3 0 0 1 .27 2.16m-4.19-4.5a2.63 2.63 0 0 0-1.17.26 2.93 2.93 0 0 0-1 .78 4.42 4.42 0 0 0-.74 1.29 6.4 6.4 0 0 0-.35 1.83h6.3a5.21 5.21 0 0 0-1-3.15 2.61 2.61 0 0 0-2.09-1M211.47 110.82 211 112a3.2 3.2 0 0 1-1.22.86 4.13 4.13 0 0 1-1.51.27 3.25 3.25 0 0 1-2.24-.78 2.93 2.93 0 0 1-.88-2.3 3.11 3.11 0 0 1 1.51-2.85 8 8 0 0 1 4.17-.93h.63v-1.1a4.87 4.87 0 0 0 0-.66 2.26 2.26 0 0 0-.6-1.49 2.16 2.16 0 0 0-1.59-.52 2.41 2.41 0 0 0-1.69.61 2.91 2.91 0 0 0-.78 1.92h-1.2a4.29 4.29 0 0 1 .34-1.48 3.44 3.44 0 0 1 .77-1.12 3.23 3.23 0 0 1 1.13-.71 3.91 3.91 0 0 1 1.43-.25 3.39 3.39 0 0 1 2.43.77 3.21 3.21 0 0 1 .91 2.16 5.74 5.74 0 0 1 0 .71v4.63c0 .49 0 1 .05 1.41s.07 1 .14 1.69h-1.15zm-2.86 1.28a2.5 2.5 0 0 0 2.06-1 3.39 3.39 0 0 0 .58-1.12 4.87 4.87 0 0 0 .2-1.42v-1.28a10.61 10.61 0 0 0-2 0 5.2 5.2 0 0 0-1.6.43 2.88 2.88 0 0 0-1.09.87 2.17 2.17 0 0 0-.4 1.34 2.12 2.12 0 0 0 .57 1.61 2.23 2.23 0 0 0 1.64.55M220.75 101.5a1.84 1.84 0 0 1 .58.08v1a2.57 2.57 0 0 0-1.18.15 2.29 2.29 0 0 0-1 .69 3.5 3.5 0 0 0-.62 1.27 6.91 6.91 0 0 0-.22 1.89v6.22h-1.15v-11.05h1.15v2l.7-1.42a2.4 2.4 0 0 1 .77-.62 2 2 0 0 1 .92-.22M232.58 104.77v8.06h-1.15v-7.73a3.29 3.29 0 0 0-.69-1.85 2.25 2.25 0 0 0-1.84-.72 2.77 2.77 0 0 0-1.17.26 2.47 2.47 0 0 0-1 .84 4.62 4.62 0 0 0-.67 1.48 8.36 8.36 0 0 0-.25 2.21v5.51h-1.15v-11.08h1.15v2.14l.52-1.2a3.56 3.56 0 0 1 1.26-1 3.82 3.82 0 0 1 1.5-.28 3.27 3.27 0 0 1 2.45.89 3.92 3.92 0 0 1 1 2.42M244.38 105.06h6.3v1.09h-6.3v6.68h-1.15V98.38h8.12v1.07h-6.97v5.61zM258.86 101.46a4.57 4.57 0 0 1 2.07.45 4.28 4.28 0 0 1 1.49 1.25 5.52 5.52 0 0 1 .91 1.85 8.58 8.58 0 0 1 0 4.57 5.48 5.48 0 0 1-.91 1.86 4.34 4.34 0 0 1-1.49 1.23 5 5 0 0 1-4.13 0 4.34 4.34 0 0 1-1.49-1.23 5.48 5.48 0 0 1-.91-1.86 8.58 8.58 0 0 1 0-4.57 5.52 5.52 0 0 1 .91-1.85 4.28 4.28 0 0 1 1.49-1.25 4.53 4.53 0 0 1 2.06-.45m0 10.64a3.1 3.1 0 0 0 2.53-1.27 4.61 4.61 0 0 0 .72-1.51 7 7 0 0 0 .26-2 7 7 0 0 0-.26-2 4.51 4.51 0 0 0-.72-1.51 3 3 0 0 0-2.53-1.27 3.1 3.1 0 0 0-1.41.32 3.14 3.14 0 0 0-1.11 1 4.51 4.51 0 0 0-.72 1.51 7 7 0 0 0-.26 2 7 7 0 0 0 .26 2 4.61 4.61 0 0 0 .72 1.51 3.1 3.1 0 0 0 2.52 1.27M271 101.5a1.89 1.89 0 0 1 .58.08v1a2.55 2.55 0 0 0-1.18.15 2.29 2.29 0 0 0-1 .69 3.35 3.35 0 0 0-.62 1.27 6.91 6.91 0 0 0-.22 1.89v6.22h-1.16v-11.05h1.16v2l.7-1.42a2.4 2.4 0 0 1 .77-.62 2 2 0 0 1 .92-.22M287.06 105.17a3.64 3.64 0 0 1 2.06 1.2 3.7 3.7 0 0 1 .69 2.36 4.42 4.42 0 0 1-.28 1.65 3.58 3.58 0 0 1-.75 1.22 3.51 3.51 0 0 1-1.09.78 4.29 4.29 0 0 1-1.28.37c-.28 0-.53.06-.76.07H281V98.38h5.16a3.88 3.88 0 0 1 2.35 1.07 3.36 3.36 0 0 1 .85 2.41 3.4 3.4 0 0 1-.62 2.12 3.34 3.34 0 0 1-1.69 1.13m-4.9-.4h2.69a10.19 10.19 0 0 0 1-.06 2.68 2.68 0 0 0 1.61-.76 2.6 2.6 0 0 0 .61-1.89 3.17 3.17 0 0 0-.18-1.14 2.35 2.35 0 0 0-.51-.77 2.44 2.44 0 0 0-.75-.47 3.45 3.45 0 0 0-.91-.21h-3.55zm3.88 7a3.21 3.21 0 0 0 1-.24 2.4 2.4 0 0 0 .81-.56 2.33 2.33 0 0 0 .56-.86 3.23 3.23 0 0 0 .21-1.21 3.15 3.15 0 0 0-.63-2.06 2.62 2.62 0 0 0-1.9-.89 4 4 0 0 0-.55-.05h-3.35v5.9h3.88M301.66 107v.27a4.12 4.12 0 0 1 0 .42h-7.41a8.14 8.14 0 0 0 .33 2.06 4.1 4.1 0 0 0 .72 1.37 2.64 2.64 0 0 0 1 .76 3 3 0 0 0 1.14.23 2.8 2.8 0 0 0 1.86-.69 3.45 3.45 0 0 0 1.09-2.08h1.19A5.36 5.36 0 0 1 301 111a4.38 4.38 0 0 1-1 1.18 3.78 3.78 0 0 1-1.25.7 4.29 4.29 0 0 1-1.43.23 4.08 4.08 0 0 1-1.7-.36 3.94 3.94 0 0 1-1.39-1.09 5.16 5.16 0 0 1-.93-1.81 8.89 8.89 0 0 1-.33-2.56 8 8 0 0 1 .34-2.42 5.63 5.63 0 0 1 1-1.84 4 4 0 0 1 1.44-1.17 4.09 4.09 0 0 1 1.8-.41 3.64 3.64 0 0 1 1.81.43 3.86 3.86 0 0 1 1.3 1.18 5.56 5.56 0 0 1 .79 1.76 8.3 8.3 0 0 1 .27 2.16m-4.19-4.5a2.63 2.63 0 0 0-1.17.26 2.93 2.93 0 0 0-1 .78 4.42 4.42 0 0 0-.74 1.29 6.07 6.07 0 0 0-.35 1.83h6.29a5.15 5.15 0 0 0-.94-3.15 2.61 2.61 0 0 0-2.09-1M306.19 98.49a.7.7 0 0 1 .55.25.88.88 0 0 1 .22.63.9.9 0 0 1-.22.61.71.71 0 0 1-1.1 0 .86.86 0 0 1-.23-.61.85.85 0 0 1 .23-.63.7.7 0 0 1 .55-.25m-.58 3.26h1.15v11.08h-1.15zM319.25 104.77a7.51 7.51 0 0 1 0 .8v7.26h-1.15v-6.92a7.57 7.57 0 0 0 0-.81 3.28 3.28 0 0 0-.68-1.85 2.25 2.25 0 0 0-1.84-.72 2.77 2.77 0 0 0-1.17.26 2.5 2.5 0 0 0-1 .84 4.62 4.62 0 0 0-.66 1.48 8.36 8.36 0 0 0-.25 2.21v5.51h-1.16v-11.08h1.16v2.14l.52-1.2a3.56 3.56 0 0 1 1.26-1 3.75 3.75 0 0 1 1.5-.28 3.25 3.25 0 0 1 2.44.89 3.81 3.81 0 0 1 1 2.42M332 110V112.6a5.16 5.16 0 0 1-1.23 3.46 4.17 4.17 0 0 1-3.18 1.23 4.47 4.47 0 0 1-2.91-.86 3.73 3.73 0 0 1-1.25-2.68v-.25h1.17v.25a2.59 2.59 0 0 0 .93 1.88 3.23 3.23 0 0 0 2 .64 2.94 2.94 0 0 0 2.39-1 4.11 4.11 0 0 0 .87-2.63v-1.9l-.65 1.21a3.13 3.13 0 0 1-1.22.86 4.33 4.33 0 0 1-1.56.27 3.84 3.84 0 0 1-1.84-.43 3.92 3.92 0 0 1-1.38-1.18 5.39 5.39 0 0 1-.87-1.8 8.28 8.28 0 0 1-.29-2.28 8 8 0 0 1 .38-2.63 5.34 5.34 0 0 1 1-1.86 3.92 3.92 0 0 1 1.49-1.11 4.37 4.37 0 0 1 1.78-.37 3.9 3.9 0 0 1 1.4.25 3 3 0 0 1 1.13.75l.61 1.2v-1.93H332zm-4.42 2.08a3.31 3.31 0 0 0 1.25-.24 2.67 2.67 0 0 0 1-.78 4.23 4.23 0 0 0 .71-1.41 7.26 7.26 0 0 0 .27-2.13v-.84a5.75 5.75 0 0 0-.29-2 3.76 3.76 0 0 0-.74-1.3 2.63 2.63 0 0 0-1-.71 2.92 2.92 0 0 0-1.1-.22 2.84 2.84 0 0 0-1.36.32 3.29 3.29 0 0 0-1.08.93 4.79 4.79 0 0 0-.71 1.49 6.92 6.92 0 0 0-.26 2 8.17 8.17 0 0 0 .21 1.89 5.23 5.23 0 0 0 .62 1.54 3.2 3.2 0 0 0 1 1 2.72 2.72 0 0 0 1.42.38M347.7 98.09a5.38 5.38 0 0 1 2 .36 4.55 4.55 0 0 1 1.52 1 4.67 4.67 0 0 1 1 1.52 6.81 6.81 0 0 1 .5 1.9v.21h-1.15v-.21a5.16 5.16 0 0 0-1.27-2.7 3.47 3.47 0 0 0-2.68-1 3.72 3.72 0 0 0-1.83.47 4.52 4.52 0 0 0-1.47 1.3 6.44 6.44 0 0 0-1 2 9.33 9.33 0 0 0-.35 2.69 10.4 10.4 0 0 0 .33 2.72 6.25 6.25 0 0 0 .94 2 4.26 4.26 0 0 0 1.43 1.29 3.73 3.73 0 0 0 1.8.45 4.12 4.12 0 0 0 1.58-.29 3.31 3.31 0 0 0 1.18-.79 4.19 4.19 0 0 0 .81-1.22 6.51 6.51 0 0 0 .47-1.53v-.21h1.14v.21a7.24 7.24 0 0 1-.51 1.88 5.31 5.31 0 0 1-1 1.55 4.58 4.58 0 0 1-1.58 1 5.47 5.47 0 0 1-2.15.38 5 5 0 0 1-4.16-2.07 7.61 7.61 0 0 1-1.13-2.36 11 11 0 0 1-.4-3 10.26 10.26 0 0 1 .44-3.07 7.54 7.54 0 0 1 1.22-2.4 5.71 5.71 0 0 1 1.88-1.56 5.27 5.27 0 0 1 2.41-.55M360.43 101.5a1.84 1.84 0 0 1 .58.08v1a2.57 2.57 0 0 0-1.18.15 2.29 2.29 0 0 0-.95.69 3.35 3.35 0 0 0-.62 1.27 6.91 6.91 0 0 0-.22 1.89v6.22h-1.16v-11.05H358v2l.7-1.42a2.4 2.4 0 0 1 .77-.62 2 2 0 0 1 .92-.22M372.11 107v.27a2.43 2.43 0 0 1 0 .42h-7.41a7.69 7.69 0 0 0 .34 2.06 3.92 3.92 0 0 0 .71 1.37 2.64 2.64 0 0 0 1 .76 3 3 0 0 0 1.15.23 2.82 2.82 0 0 0 1.86-.69 3.39 3.39 0 0 0 1.08-2.08H372a4.9 4.9 0 0 1-.58 1.68 4.2 4.2 0 0 1-1 1.18 3.69 3.69 0 0 1-1.25.7 4.29 4.29 0 0 1-1.43.23 4.08 4.08 0 0 1-1.7-.36 4 4 0 0 1-1.39-1.09 5.51 5.51 0 0 1-.93-1.81 8.89 8.89 0 0 1-.33-2.56 8.27 8.27 0 0 1 .34-2.42 5.63 5.63 0 0 1 1-1.84 4.23 4.23 0 0 1 1.44-1.17 4.09 4.09 0 0 1 1.8-.41 3.62 3.62 0 0 1 1.81.43 3.77 3.77 0 0 1 1.3 1.18 5.56 5.56 0 0 1 .79 1.76 8.3 8.3 0 0 1 .27 2.16m-4.19-4.5a2.63 2.63 0 0 0-1.17.26 2.81 2.81 0 0 0-1 .78 4.22 4.22 0 0 0-.75 1.29 6.4 6.4 0 0 0-.35 1.83H371a5.15 5.15 0 0 0-.95-3.15 2.6 2.6 0 0 0-2.09-1M381.78 110.82l-.48 1.18a3.13 3.13 0 0 1-1.22.86 4.13 4.13 0 0 1-1.51.27 3.25 3.25 0 0 1-2.24-.78 2.93 2.93 0 0 1-.88-2.3 3.11 3.11 0 0 1 1.51-2.85 8 8 0 0 1 4.17-.93h.63v-1.1a4.87 4.87 0 0 0 0-.66 2.26 2.26 0 0 0-.6-1.49 2.16 2.16 0 0 0-1.59-.52 2.41 2.41 0 0 0-1.69.61 2.91 2.91 0 0 0-.78 1.92h-1.2a4.53 4.53 0 0 1 .34-1.48 3.44 3.44 0 0 1 .77-1.12 3.23 3.23 0 0 1 1.13-.71 3.91 3.91 0 0 1 1.43-.25 3.43 3.43 0 0 1 2.44.77 3.31 3.31 0 0 1 .91 2.16v6.75c0 .41.08 1 .14 1.69H382zm-2.86 1.28a2.5 2.5 0 0 0 2.06-1 3.39 3.39 0 0 0 .58-1.12 4.87 4.87 0 0 0 .2-1.42v-1.28a10.62 10.62 0 0 0-2 0 5.2 5.2 0 0 0-1.6.43 2.88 2.88 0 0 0-1.09.87 2.17 2.17 0 0 0-.4 1.34 2.12 2.12 0 0 0 .57 1.61 2.24 2.24 0 0 0 1.64.55M389 109.79v.99a1.33 1.33 0 0 0 .43 1 2.12 2.12 0 0 0 1.37.1v1a4.22 4.22 0 0 1-.59.09h-.6a1.73 1.73 0 0 1-1.26-.42 2.1 2.1 0 0 1-.5-1.34v-8.4h-1.26v-1h1.26v-2.44H389v2.45h1.88v1H389zM395.22 98.49a.72.72 0 0 1 .56.25.88.88 0 0 1 .22.63.9.9 0 0 1-.22.61.7.7 0 0 1-.56.26.7.7 0 0 1-.55-.26.91.91 0 0 1-.23-.61.89.89 0 0 1 .23-.63.73.73 0 0 1 .55-.25m-.58 3.26h1.16v11.08h-1.16zM404.35 112.83h-1.42l-3.77-11.08h1.26l3.27 10.12 3.23-10.12h1.22l-3.79 11.08zM419.3 107v.27a2.43 2.43 0 0 1 0 .42h-7.41a7.69 7.69 0 0 0 .34 2.06 3.92 3.92 0 0 0 .71 1.37 2.64 2.64 0 0 0 1 .76 3 3 0 0 0 1.15.23 2.82 2.82 0 0 0 1.86-.69 3.39 3.39 0 0 0 1.08-2.08h1.19a4.9 4.9 0 0 1-.58 1.68 4.2 4.2 0 0 1-1 1.18 3.59 3.59 0 0 1-1.25.7 4.27 4.27 0 0 1-1.42.23 4.1 4.1 0 0 1-1.71-.36 4 4 0 0 1-1.39-1.09 5.31 5.31 0 0 1-.92-1.81 8.54 8.54 0 0 1-.34-2.56 8.27 8.27 0 0 1 .34-2.42 5.63 5.63 0 0 1 1-1.84 4.23 4.23 0 0 1 1.44-1.17 4.09 4.09 0 0 1 1.8-.41 3.68 3.68 0 0 1 1.82.43 3.83 3.83 0 0 1 1.29 1.18 5.56 5.56 0 0 1 .79 1.76 8.3 8.3 0 0 1 .27 2.16m-4.19-4.5a2.62 2.62 0 0 0-1.16.26 2.84 2.84 0 0 0-1 .78 4 4 0 0 0-.74 1.29 6.06 6.06 0 0 0-.36 1.83h6.3a5.15 5.15 0 0 0-.95-3.15 2.6 2.6 0 0 0-2.09-1"/><path class="cls-2" d="m183.09 81.96-16.42-51.35h12.93l10.88 41 10.95-41h12.6L197.6 81.96h-14.51z"/><path class="cls-1" d="M238.9 29.57a22.44 22.44 0 0 1 8.1 1.36 17 17 0 0 1 6 3.75 17.45 17.45 0 0 1 3.83 5.64 23.23 23.23 0 0 1 1.72 7l.06.74h-9.1l-.13-.74a13.74 13.74 0 0 0-3.46-7.32 9.58 9.58 0 0 0-7.15-2.64 9.81 9.81 0 0 0-5 1.3 11.79 11.79 0 0 0-3.86 3.7 19.08 19.08 0 0 0-2.5 5.86 31 31 0 0 0-.91 7.78 34.05 34.05 0 0 0 .92 8.38 19.45 19.45 0 0 0 2.54 6 11.08 11.08 0 0 0 3.86 3.62 9.94 9.94 0 0 0 4.81 1.22 9.12 9.12 0 0 0 7.06-2.79 15.17 15.17 0 0 0 3.5-7.63l.13-.74h9l-.07.74a23.39 23.39 0 0 1-1.91 7.45 17.42 17.42 0 0 1-4.05 5.75 18.18 18.18 0 0 1-6.14 3.68 22.59 22.59 0 0 1-7.91 1.32 20.44 20.44 0 0 1-8.68-1.82 19.33 19.33 0 0 1-6.76-5.25 24.36 24.36 0 0 1-4.38-8.33 36.36 36.36 0 0 1-1.55-11 35.38 35.38 0 0 1 1.68-11.31 25.86 25.86 0 0 1 4.62-8.48 19.81 19.81 0 0 1 7-5.36 20.62 20.62 0 0 1 8.77-1.86M280.85 41.33a18.37 18.37 0 0 1 7.75 1.56 16.2 16.2 0 0 1 5.74 4.36 18.85 18.85 0 0 1 3.53 6.58 29.65 29.65 0 0 1 0 16.63 18.78 18.78 0 0 1-3.53 6.62 16.2 16.2 0 0 1-5.74 4.36 20 20 0 0 1-15.5 0 16.2 16.2 0 0 1-5.74-4.36 18.78 18.78 0 0 1-3.53-6.62 29.65 29.65 0 0 1 0-16.63 18.85 18.85 0 0 1 3.53-6.58 16.2 16.2 0 0 1 5.74-4.36 18.37 18.37 0 0 1 7.75-1.56m0 34.45a7.27 7.27 0 0 0 6.47-3.61q2.3-3.6 2.3-10t-2.3-10a7.64 7.64 0 0 0-12.93 0q-2.31 3.57-2.31 10t2.31 10a7.25 7.25 0 0 0 6.46 3.61M337.38 82h-9.1v-6.7l-2.71 5.06a11.75 11.75 0 0 1-3.92 2.08 15.8 15.8 0 0 1-4.52.6 13.69 13.69 0 0 1-4.88-.82 12.2 12.2 0 0 1-3.76-2.22 10.6 10.6 0 0 1-2.51-3.2 13.4 13.4 0 0 1-1.25-3.8c-.13-1-.22-2-.27-3.16s-.06-2.47-.06-4.05V42.37h9.1v21.21c0 .64 0 1.46.07 2.45s.11 2 .2 3a8.37 8.37 0 0 0 2 4.91 6.25 6.25 0 0 0 4.82 1.79 6.46 6.46 0 0 0 5.57-3.2q2.14-3.2 2.15-10V42.37h9.1zM363.63 41.4a9.57 9.57 0 0 1 2.58.3V50q-5.68-.45-8.51 2.72t-2.84 11.08V82h-9.1V42.37h9.1v7.22l2.77-5.51a9.13 9.13 0 0 1 2.9-2 8.06 8.06 0 0 1 3.1-.67M383.36 41.33a15.62 15.62 0 0 1 5.6.93 12.32 12.32 0 0 1 4.19 2.6 13 13 0 0 1 2.81 4 15.64 15.64 0 0 1 1.32 5h-9.11a8.38 8.38 0 0 0-1.79-4.24 4.65 4.65 0 0 0-3.65-1.49 4 4 0 0 0-3.13 1.19 4.46 4.46 0 0 0-1.06 3.05 4.22 4.22 0 0 0 1.82 3.57 20.65 20.65 0 0 0 6.19 2.61 20.63 20.63 0 0 1 8.45 4.32q3 2.79 3 8.3a11.45 11.45 0 0 1-1.12 5.21 10.28 10.28 0 0 1-3.07 3.68 13.82 13.82 0 0 1-4.58 2.2 21.06 21.06 0 0 1-5.67.74A17 17 0 0 1 373 79.8q-4.19-3.19-4.92-9.9h9.11a7.55 7.55 0 0 0 2.34 4.8 6.3 6.3 0 0 0 4.19 1.53 6.06 6.06 0 0 0 3.66-1.08 3.74 3.74 0 0 0 1.48-3.24 4.52 4.52 0 0 0-1.91-3.76 20.31 20.31 0 0 0-6.47-2.71 25.71 25.71 0 0 1-4.48-1.68 13.64 13.64 0 0 1-3.5-2.41 10 10 0 0 1-2.27-3.35 11.69 11.69 0 0 1-.79-4.47 12.59 12.59 0 0 1 1-5.09 10.42 10.42 0 0 1 2.83-3.84 13.41 13.41 0 0 1 4.39-2.41 17.83 17.83 0 0 1 5.71-.86M435.47 61.35V63a16.69 16.69 0 0 1-.13 1.89h-25a19.94 19.94 0 0 0 .92 5.21 11.46 11.46 0 0 0 1.79 3.39 5.82 5.82 0 0 0 2.45 1.82 8.37 8.37 0 0 0 3 .52 7.11 7.11 0 0 0 4.92-1.83 7.89 7.89 0 0 0 2.42-5h9.1a19.24 19.24 0 0 1-2.18 6.07 14.85 14.85 0 0 1-3.69 4.35 16 16 0 0 1-4.91 2.61 18.94 18.94 0 0 1-5.84.89 17.53 17.53 0 0 1-6.73-1.27 14.6 14.6 0 0 1-5.41-3.83 18.3 18.3 0 0 1-3.63-6.47 28.52 28.52 0 0 1-1.32-9.12 26.37 26.37 0 0 1 1.29-8.4 20.45 20.45 0 0 1 3.59-6.66 16.19 16.19 0 0 1 5.61-4.36 16.91 16.91 0 0 1 7.28-1.48 15 15 0 0 1 7.09 1.6 15.24 15.24 0 0 1 5.15 4.35 19.4 19.4 0 0 1 3.13 6.4 27.23 27.23 0 0 1 1.06 7.67m-16.85-12.8a6.85 6.85 0 0 0-5.3 2.34c-1.42 1.56-2.32 4-2.72 7.26h15.5a14.09 14.09 0 0 0-2.28-7.15 6.11 6.11 0 0 0-5.16-2.45"/></g></g></svg>
